<?xml version="1.0" encoding="utf-8"?>
<!-- Svg Vector Icons : http://www.onlinewebfonts.com/icon -->
<!DOCTYPE svg PUBLIC "-//W3C//DTD SVG 1.1//EN" "http://www.w3.org/Graphics/SVG/1.1/DTD/svg11.dtd">
<svg version="1.1" xmlns="http://www.w3.org/2000/svg" xmlns:xlink="http://www.w3.org/1999/xlink" x="0px" y="0px" viewBox="0 0 256 256" enable-background="new 0 0 256 256" xml:space="preserve">
<metadata> Svg Vector Icons : http://www.onlinewebfonts.com/icon </metadata>
<g><g><g><path fill="#000000" d="M76.5,10.6c-2.8,1.5-3,4.1-0.7,9.7C81.4,34.5,87,52.5,89.4,64c1.3,6.1,1.5,8,1.5,14c0,8.1-0.5,10.6-3.6,17.1c-2.4,5.1-4.1,7.6-12,18.2c-13.1,17.4-17.7,26.2-20.5,39.6c-1.4,6.5-1.6,21.1-0.3,27.3c5.6,27.8,23.8,55.5,41.6,63.3c5.5,2.4,6.5,2.5,32,2.5c25.6,0,26.6-0.1,32-2.5c15.4-6.8,32.2-29.8,39.1-53.7c2.8-9.5,3.2-12.5,3.2-22.7c0-7.9-0.2-10.2-1-14.1c-2.9-13.5-7.7-22.9-20.1-39.1c-9.7-12.7-12.9-18.1-15.1-25.1c-0.9-3-1.1-4.3-1-10.6c0-5.9,0.3-8.3,1.3-13.3c2.3-11.2,7.3-27.5,13-42.3c2.6-6.8,2.9-8.1,1.9-10.1c-1.2-2.7,1.3-2.5-53.5-2.5C87,10,77.4,10.1,76.5,10.6z"/></g></g></g>
</svg>